STARTFONT 2.1
FONT -Adobe-Helvetica-Bold-R-Narrow--25-180-100-100-P-116-ISO8859-1
SIZE 18 100 100
FONTBOUNDINGBOX 22 24 -2 -5

STARTPROPERTIES 26
_DEC_DEVICE_FONTNAMES "PS=Helvetica-Narrow-Bold"
FONTNAME_REGISTRY ""
FAMILY_NAME "Helvetica"
FOUNDRY "Adobe"
WEIGHT_NAME "Bold"
SLANT "R"
SETWIDTH_NAME "Narrow"
ADD_STYLE_NAME ""
PIXEL_SIZE 25
POINT_SIZE 180
RESOLUTION_X 100
RESOLUTION_Y 100
SPACING "P"
AVERAGE_WIDTH 116
CHARSET_REGISTRY "ISO8859"
CHARSET_ENCODING "1"
CHARSET_COLLECTIONS "ASCII ISO8859-1 ADOBE-STANDARD"
FULL_NAME "Helvetica Narrow Bold"
COPYRIGHT "Copyright (c) 1991 Adobe Systems, Inc."
CAP_HEIGHT 19
X_HEIGHT 14
WEIGHT 10
QUAD_WIDTH 13
DEFAULT_CHAR 0
FONT_DESCENT 5
FONT_ASCENT 19
ENDPROPERTIES

CHARS 190

STARTCHAR space
ENCODING 32
SWIDTH 228 0
DWIDTH 6 0
BBX 1 1 0 0
BITMAP
00
ENDCHAR

STARTCHAR exclam
ENCODING 33
SWIDTH 273 0
DWIDTH 7 0
BBX 3 19 2 0
BITMAP
E0
E0
E0
E0
E0
E0
E0
E0
E0
E0
E0
E0
E0
E0
E0
00
E0
E0
E0
ENDCHAR

STARTCHAR quotedbl
ENCODING 34
SWIDTH 389 0
DWIDTH 7 0
BBX 5 6 1 13
BITMAP
D8
D8
D8
D8
D8
D8
ENDCHAR

STARTCHAR numbersign
ENCODING 35
SWIDTH 456 0
DWIDTH 12 0
BBX 12 19 0 0
BITMAP
1CE0
1CE0
1CE0
1CE0
1CE0
7FF0
7FF0
39C0
39C0
39C0
39C0
FFE0
FFE0
7380
7380
7380
7380
7380
7380
ENDCHAR

STARTCHAR dollar
ENCODING 36
SWIDTH 456 0
DWIDTH 12 0
BBX 10 21 1 -2
BITMAP
0C00
3F00
7F80
7FC0
EDC0
EDC0
EC00
7C00
7E00
3F80
0F80
0FC0
0DC0
EDC0
EDC0
EDC0
7F80
7F80
3F00
0C00
0C00
ENDCHAR

STARTCHAR percent
ENCODING 37
SWIDTH 729 0
DWIDTH 18 0
BBX 15 19 1 0
BITMAP
3818
7C30
C630
C660
C660
C6C0
7CC0
3980
0180
0300
0300
0638
067C
0CC6
0CC6
18C6
18C6
307C
3038
ENDCHAR

STARTCHAR ampersand
ENCODING 38
SWIDTH 592 0
DWIDTH 15 0
BBX 13 19 1 0
BITMAP
0F00
1F80
3FC0
39C0
39C0
3B80
1F80
1F00
3E00
7F00
7738
E3B8
E3F8
E1F0
E0F0
F1E0
7FF0
7FB8
1F18
ENDCHAR

STARTCHAR quoteright
ENCODING 39
SWIDTH 228 0
DWIDTH 5 0
BBX 3 6 1 13
BITMAP
E0
E0
E0
60
E0
C0
ENDCHAR

STARTCHAR parenleft
ENCODING 40
SWIDTH 273 0
DWIDTH 7 0
BBX 5 24 1 -5
BITMAP
18
18
38
30
70
70
70
E0
E0
E0
E0
E0
E0
E0
E0
E0
E0
70
70
70
30
38
18
18
ENDCHAR

STARTCHAR parenright
ENCODING 41
SWIDTH 273 0
DWIDTH 7 0
BBX 5 24 1 -5
BITMAP
C0
C0
E0
60
70
70
70
38
38
38
38
38
38
38
38
38
38
70
70
70
60
E0
C0
C0
ENDCHAR

STARTCHAR asterisk
ENCODING 42
SWIDTH 319 0
DWIDTH 8 0
BBX 8 7 0 12
BITMAP
18
DB
FF
3C
7E
E7
42
ENDCHAR

STARTCHAR plus
ENCODING 43
SWIDTH 479 0
DWIDTH 12 0
BBX 11 13 0 0
BITMAP
0E00
0E00
0E00
0E00
0E00
FFE0
FFE0
FFE0
0E00
0E00
0E00
0E00
0E00
ENDCHAR

STARTCHAR comma
ENCODING 44
SWIDTH 228 0
DWIDTH 6 0
BBX 3 6 1 -3
BITMAP
E0
E0
E0
60
E0
C0
ENDCHAR

STARTCHAR minus
ENCODING 45
SWIDTH 479 0
DWIDTH 15 0
BBX 11 3 2 5
BITMAP
FFE0
FFE0
FFE0
ENDCHAR

STARTCHAR period
ENCODING 46
SWIDTH 228 0
DWIDTH 6 0
BBX 3 3 1 0
BITMAP
E0
E0
E0
ENDCHAR

STARTCHAR slash
ENCODING 47
SWIDTH 228 0
DWIDTH 6 0
BBX 7 22 -1 -3
BITMAP
06
06
0E
0E
0C
0C
1C
1C
18
18
38
38
30
30
70
70
60
60
E0
E0
C0
C0
ENDCHAR

STARTCHAR zero
ENCODING 48
SWIDTH 456 0
DWIDTH 12 0
BBX 10 19 1 0
BITMAP
1E00
7F80
7F80
F3C0
E1C0
E1C0
E1C0
E1C0
E1C0
E1C0
E1C0
E1C0
E1C0
E1C0
E1C0
F3C0
7F80
7F80
1E00
ENDCHAR

STARTCHAR one
ENCODING 49
SWIDTH 456 0
DWIDTH 12 0
BBX 6 19 2 0
BITMAP
1C
1C
3C
FC
FC
FC
1C
1C
1C
1C
1C
1C
1C
1C
1C
1C
1C
1C
1C
ENDCHAR

STARTCHAR two
ENCODING 50
SWIDTH 456 0
DWIDTH 12 0
BBX 10 19 1 0
BITMAP
1E00
7F80
7F80
F3C0
E1C0
E1C0
E1C0
03C0
0380
0780
0F00
1E00
3C00
7800
7000
F000
FFC0
FFC0
FFC0
ENDCHAR

STARTCHAR three
ENCODING 51
SWIDTH 456 0
DWIDTH 12 0
BBX 10 19 1 0
BITMAP
1E00
7F80
7F80
F3C0
E1C0
E1C0
01C0
03C0
0F80
0F00
0F80
03C0
E1C0
E1C0
E1C0
F3C0
7F80
7F80
1E00
ENDCHAR

STARTCHAR four
ENCODING 52
SWIDTH 456 0
DWIDTH 12 0
BBX 11 19 0 0
BITMAP
0380
0380
0780
0780
0F80
0F80
1F80
1F80
3B80
3B80
7380
7380
FFE0
FFE0
FFE0
0380
0380
0380
0380
ENDCHAR

STARTCHAR five
ENCODING 53
SWIDTH 456 0
DWIDTH 12 0
BBX 10 19 1 0
BITMAP
FF80
FF80
FF80
E000
E000
E000
EE00
FF80
FF80
E3C0
01C0
01C0
01C0
E1C0
E1C0
F3C0
7F80
7F80
1E00
ENDCHAR

STARTCHAR six
ENCODING 54
SWIDTH 456 0
DWIDTH 12 0
BBX 10 19 1 0
BITMAP
1E00
7F80
7F80
F3C0
E1C0
E1C0
E000
EE00
FF80
FF80
F3C0
E1C0
E1C0
E1C0
E1C0
F3C0
7F80
7F80
1E00
ENDCHAR

STARTCHAR seven
ENCODING 55
SWIDTH 456 0
DWIDTH 12 0
BBX 11 19 0 0
BITMAP
FFE0
FFE0
FFE0
01C0
01C0
0380
0380
0700
0700
0700
0E00
0E00
0E00
0E00
1C00
1C00
1C00
1C00
1C00
ENDCHAR

STARTCHAR eight
ENCODING 56
SWIDTH 456 0
DWIDTH 12 0
BBX 10 19 1 0
BITMAP
1E00
7F80
7F80
F3C0
E1C0
E1C0
E1C0
7380
7F80
3F00
7F80
7380
E1C0
E1C0
E1C0
F3C0
7F80
7F80
1E00
ENDCHAR

STARTCHAR nine
ENCODING 57
SWIDTH 456 0
DWIDTH 12 0
BBX 10 19 1 0
BITMAP
1E00
7F80
7F80
F3C0
E1C0
E1C0
E1C0
E1C0
F3C0
7FC0
7FC0
1DC0
01C0
E1C0
E1C0
F3C0
7F80
7F80
1E00
ENDCHAR

STARTCHAR colon
ENCODING 58
SWIDTH 273 0
DWIDTH 7 0
BBX 3 13 2 0
BITMAP
E0
E0
E0
00
00
00
00
00
00
00
E0
E0
E0
ENDCHAR

STARTCHAR semicolon
ENCODING 59
SWIDTH 273 0
DWIDTH 7 0
BBX 3 16 2 -3
BITMAP
E0
E0
E0
00
00
00
00
00
00
00
E0
E0
E0
60
E0
C0
ENDCHAR

STARTCHAR less
ENCODING 60
SWIDTH 479 0
DWIDTH 12 0
BBX 11 12 0 0
BITMAP
0060
01E0
07C0
1F00
7C00
F000
F000
7C00
1F00
07C0
01E0
0060
ENDCHAR

STARTCHAR equal
ENCODING 61
SWIDTH 479 0
DWIDTH 12 0
BBX 10 9 1 2
BITMAP
FFC0
FFC0
FFC0
0000
0000
0000
FFC0
FFC0
FFC0
ENDCHAR

STARTCHAR greater
ENCODING 62
SWIDTH 479 0
DWIDTH 12 0
BBX 11 12 0 0
BITMAP
C000
F000
7C00
1F00
07C0
01E0
01E0
07C0
1F00
7C00
F000
C000
ENDCHAR

STARTCHAR question
ENCODING 63
SWIDTH 501 0
DWIDTH 11 0
BBX 9 19 1 0
BITMAP
3E00
7F00
FF80
E380
E380
E380
0780
0700
0F00
0E00
1E00
1C00
1C00
1C00
0000
0000
1C00
1C00
1C00
ENDCHAR

STARTCHAR at
ENCODING 64
SWIDTH 800 0
DWIDTH 21 0
BBX 20 23 0 -4
BITMAP
00FE00
03FF80
0FFFC0
1F03E0
3C00E0
3876F0
79FE70
71FE70
73CE70
E38E70
E78C70
E71C70
E71C60
E71CE0
E7BCE0
E7FFC0
F3EFC0
71C700
780000
3E0700
1FFF00
0FFE00
03F800
ENDCHAR

STARTCHAR A
ENCODING 65
SWIDTH 592 0
DWIDTH 15 0
BBX 13 19 1 0
BITMAP
0F80
0F80
0F80
1FC0
1DC0
1DC0
1DC0
38E0
38E0
38E0
38E0
7070
7FF0
7FF0
7FF0
E038
E038
E038
E038
ENDCHAR

STARTCHAR B
ENCODING 66
SWIDTH 592 0
DWIDTH 15 0
BBX 11 19 2 0
BITMAP
FF00
FFC0
FFC0
E1E0
E0E0
E0E0
E1E0
FFC0
FF80
FFC0
E1E0
E0E0
E0E0
E0E0
E0E0
E1E0
FFC0
FFC0
FF00
ENDCHAR

STARTCHAR C
ENCODING 67
SWIDTH 592 0
DWIDTH 14 0
BBX 12 19 1 0
BITMAP
0F80
3FE0
3FE0
78F0
7070
F070
E000
E000
E000
E000
E000
E000
E000
F070
7070
78F0
3FE0
3FE0
0F80
ENDCHAR

STARTCHAR D
ENCODING 68
SWIDTH 592 0
DWIDTH 16 0
BBX 12 19 2 0
BITMAP
FF00
FFC0
FFC0
E1E0
E0E0
E0F0
E070
E070
E070
E070
E070
E070
E070
E0F0
E0E0
E1E0
FFC0
FFC0
FF00
ENDCHAR

STARTCHAR E
ENCODING 69
SWIDTH 547 0
DWIDTH 13 0
BBX 10 19 2 0
BITMAP
FFC0
FFC0
FFC0
E000
E000
E000
E000
E000
FF80
FF80
FF80
E000
E000
E000
E000
E000
FFC0
FFC0
FFC0
ENDCHAR

STARTCHAR F
ENCODING 70
SWIDTH 501 0
DWIDTH 12 0
BBX 10 19 2 0
BITMAP
FFC0
FFC0
FFC0
E000
E000
E000
E000
E000
FF80
FF80
FF80
E000
E000
E000
E000
E000
E000
E000
E000
ENDCHAR

STARTCHAR G
ENCODING 71
SWIDTH 638 0
DWIDTH 16 0
BBX 13 19 1 0
BITMAP
0FC0
3FF0
3FF0
7878
7038
F038
E000
E000
E000
E1F8
E1F8
E1F8
E038
F038
7038
7878
3FF8
3FF8
0FB8
ENDCHAR

STARTCHAR H
ENCODING 72
SWIDTH 592 0
DWIDTH 15 0
BBX 11 19 2 0
BITMAP
E0E0
E0E0
E0E0
E0E0
E0E0
E0E0
E0E0
E0E0
FFE0
FFE0
FFE0
E0E0
E0E0
E0E0
E0E0
E0E0
E0E0
E0E0
E0E0
ENDCHAR

STARTCHAR I
ENCODING 73
SWIDTH 228 0
DWIDTH 7 0
BBX 3 19 2 0
BITMAP
E0
E0
E0
E0
E0
E0
E0
E0
E0
E0
E0
E0
E0
E0
E0
E0
E0
E0
E0
ENDCHAR

STARTCHAR J
ENCODING 74
SWIDTH 456 0
DWIDTH 10 0
BBX 9 19 0 0
BITMAP
0380
0380
0380
0380
0380
0380
0380
0380
0380
0380
0380
0380
E380
E380
E380
E380
FF80
7F00
3E00
ENDCHAR

STARTCHAR K
ENCODING 75
SWIDTH 592 0
DWIDTH 13 0
BBX 12 19 2 0
BITMAP
E1E0
E1C0
E3C0
E380
E780
E700
EF00
EE00
FE00
FE00
FF00
EF00
E780
E780
E3C0
E3C0
E1E0
E1E0
E0F0
ENDCHAR

STARTCHAR L
ENCODING 76
SWIDTH 501 0
DWIDTH 12 0
BBX 10 19 2 0
BITMAP
E000
E000
E000
E000
E000
E000
E000
E000
E000
E000
E000
E000
E000
E000
E000
E000
FFC0
FFC0
FFC0
ENDCHAR

STARTCHAR M
ENCODING 77
SWIDTH 683 0
DWIDTH 19 0
BBX 15 19 2 0
BITMAP
F01E
F01E
F01E
F83E
F83E
F83E
FC7E
FC7E
EC6E
EEEE
EEEE
E6CE
E7CE
E7CE
E7CE
E38E
E38E
E38E
E38E
ENDCHAR

STARTCHAR N
ENCODING 78
SWIDTH 592 0
DWIDTH 16 0
BBX 12 19 2 0
BITMAP
F070
F070
F070
F870
F870
FC70
FC70
EC70
EE70
E670
E770
E370
E3F0
E3F0
E1F0
E1F0
E0F0
E0F0
E0F0
ENDCHAR

STARTCHAR O
ENCODING 79
SWIDTH 638 0
DWIDTH 16 0
BBX 14 19 1 0
BITMAP
0FC0
3FF0
3FF0
7878
7038
F03C
E01C
E01C
E01C
E01C
E01C
E01C
E01C
F03C
7038
7878
3FF0
3FF0
0FC0
ENDCHAR

STARTCHAR P
ENCODING 80
SWIDTH 547 0
DWIDTH 14 0
BBX 11 19 2 0
BITMAP
FF00
FFC0
FFC0
E1E0
E0E0
E0E0
E0E0
E1E0
FFC0
FFC0
FF00
E000
E000
E000
E000
E000
E000
E000
E000
ENDCHAR

STARTCHAR Q
ENCODING 81
SWIDTH 638 0
DWIDTH 16 0
BBX 14 20 1 -1
BITMAP
0FC0
3FF0
3FF0
7878
7038
F03C
E01C
E01C
E01C
E01C
E01C
E01C
E01C
F0B8
71F8
78F0
3FF0
3FF8
0FB8
0010
ENDCHAR

STARTCHAR R
ENCODING 82
SWIDTH 592 0
DWIDTH 16 0
BBX 12 19 2 0
BITMAP
FF80
FFE0
FFE0
E0F0
E070
E070
E070
E0F0
FFE0
FFC0
FFE0
E0E0
E070
E070
E070
E070
E070
E070
E070
ENDCHAR

STARTCHAR S
ENCODING 83
SWIDTH 547 0
DWIDTH 13 0
BBX 11 19 1 0
BITMAP
1F00
7FC0
7FC0
F1E0
E0E0
E0E0
F000
F800
7E00
3F80
0FC0
03E0
01E0
E0E0
E0E0
F1E0
7FC0
7FC0
1F00
ENDCHAR

STARTCHAR T
ENCODING 84
SWIDTH 501 0
DWIDTH 11 0
BBX 11 19 0 0
BITMAP
FFE0
FFE0
FFE0
0E00
0E00
0E00
0E00
0E00
0E00
0E00
0E00
0E00
0E00
0E00
0E00
0E00
0E00
0E00
0E00
ENDCHAR

STARTCHAR U
ENCODING 85
SWIDTH 592 0
DWIDTH 16 0
BBX 12 19 2 0
BITMAP
E070
E070
E070
E070
E070
E070
E070
E070
E070
E070
E070
E070
E070
E070
E070
F0F0
7FE0
7FE0
1F80
ENDCHAR

STARTCHAR V
ENCODING 86
SWIDTH 547 0
DWIDTH 13 0
BBX 13 19 0 0
BITMAP
E038
E038
E038
7070
7070
7070
7070
38E0
38E0
38E0
38E0
1DC0
1DC0
1DC0
1FC0
0F80
0F80
0F80
0F80
ENDCHAR

STARTCHAR W
ENCODING 87
SWIDTH 774 0
DWIDTH 21 0
BBX 19 19 1 0
BITMAP
E0E0E0
E0E0E0
E0E0E0
F0E1E0
71F1C0
71F1C0
71F1C0
79F3C0
7BBBC0
3BBB80
3BBB80
3F1F80
3F1F80
3F1F80
1F1F00
1E0F00
1E0F00
1E0F00
1E0F00
ENDCHAR

STARTCHAR X
ENCODING 88
SWIDTH 547 0
DWIDTH 15 0
BBX 13 19 1 0
BITMAP
F078
F078
7070
78F0
38E0
3DE0
1FC0
1FC0
0F80
0F80
0F80
1FC0
1DC0
3DE0
38E0
78F0
7070
F078
F078
ENDCHAR

STARTCHAR Y
ENCODING 89
SWIDTH 547 0
DWIDTH 13 0
BBX 13 19 0 0
BITMAP
E038
F078
7070
78F0
38E0
3DE0
1DC0
1FC0
0F80
0F80
0700
0700
0700
0700
0700
0700
0700
0700
0700
ENDCHAR

STARTCHAR Z
ENCODING 90
SWIDTH 501 0
DWIDTH 14 0
BBX 12 19 1 0
BITMAP
7FF0
7FF0
7FF0
00F0
00E0
01E0
03C0
0380
0780
0F00
0E00
1E00
3C00
3800
7800
F000
FFF0
FFF0
FFF0
ENDCHAR

STARTCHAR bracketleft
ENCODING 91
SWIDTH 273 0
DWIDTH 7 0
BBX 5 24 2 -5
BITMAP
F8
F8
E0
E0
E0
E0
E0
E0
E0
E0
E0
E0
E0
E0
E0
E0
E0
E0
E0
E0
E0
E0
F8
F8
ENDCHAR

STARTCHAR backslash
ENCODING 92
SWIDTH 228 0
DWIDTH 5 0
BBX 6 19 -1 0
BITMAP
C0
C0
C0
E0
60
60
60
70
30
30
30
38
18
18
18
1C
0C
0C
0C
ENDCHAR

STARTCHAR bracketright
ENCODING 93
SWIDTH 273 0
DWIDTH 7 0
BBX 5 24 0 -5
BITMAP
F8
F8
38
38
38
38
38
38
38
38
38
38
38
38
38
38
38
38
38
38
38
38
F8
F8
ENDCHAR

STARTCHAR asciicircum
ENCODING 94
SWIDTH 479 0
DWIDTH 12 0
BBX 9 9 1 10
BITMAP
1C00
1C00
3E00
3600
7700
6300
E380
C180
C180
ENDCHAR

STARTCHAR underscore
ENCODING 95
SWIDTH 456 0
DWIDTH 11 0
BBX 11 2 0 -4
BITMAP
FFE0
FFE0
ENDCHAR

STARTCHAR quoteleft
ENCODING 96
SWIDTH 228 0
DWIDTH 5 0
BBX 3 6 1 13
BITMAP
60
E0
C0
E0
E0
E0
ENDCHAR

STARTCHAR a
ENCODING 97
SWIDTH 456 0
DWIDTH 12 0
BBX 10 14 1 0
BITMAP
3E00
7F00
FF80
E380
0380
0F80
3F80
7B80
F380
E380
E780
FF80
FFC0
79C0
ENDCHAR

STARTCHAR b
ENCODING 98
SWIDTH 501 0
DWIDTH 12 0
BBX 10 19 1 0
BITMAP
E000
E000
E000
E000
E000
EE00
FF00
FF80
E380
E1C0
E1C0
E1C0
E1C0
E1C0
E1C0
E380
FF80
FF00
DE00
ENDCHAR

STARTCHAR c
ENCODING 99
SWIDTH 456 0
DWIDTH 12 0
BBX 10 14 1 0
BITMAP
1E00
7F80
7F80
F1C0
E1C0
E000
E000
E000
E000
E1C0
F1C0
7F80
7F80
1E00
ENDCHAR

STARTCHAR d
ENCODING 100
SWIDTH 501 0
DWIDTH 12 0
BBX 10 19 1 0
BITMAP
01C0
01C0
01C0
01C0
01C0
1DC0
3FC0
7FC0
71C0
E1C0
E1C0
E1C0
E1C0
E1C0
E1C0
71C0
7FC0
3FC0
1EC0
ENDCHAR

STARTCHAR e
ENCODING 101
SWIDTH 456 0
DWIDTH 12 0
BBX 10 14 1 0
BITMAP
1E00
7F80
7F80
F3C0
E1C0
E1C0
FFC0
FFC0
E000
E1C0
F3C0
7F80
7F80
1E00
ENDCHAR

STARTCHAR f
ENCODING 102
SWIDTH 273 0
DWIDTH 7 0
BBX 7 19 0 0
BITMAP
0E
1E
3E
38
38
FE
FE
FE
38
38
38
38
38
38
38
38
38
38
38
ENDCHAR

STARTCHAR g
ENCODING 103
SWIDTH 501 0
DWIDTH 12 0
BBX 10 19 1 -5
BITMAP
1EC0
3FC0
7FC0
71C0
E1C0
E1C0
E1C0
E1C0
E1C0
E1C0
71C0
7FC0
3FC0
1DC0
01C0
71C0
7F80
3F80
1E00
ENDCHAR

STARTCHAR h
ENCODING 104
SWIDTH 501 0
DWIDTH 12 0
BBX 10 19 1 0
BITMAP
E000
E000
E000
E000
E000
EF00
FF80
FFC0
F3C0
E1C0
E1C0
E1C0
E1C0
E1C0
E1C0
E1C0
E1C0
E1C0
E1C0
ENDCHAR

STARTCHAR i
ENCODING 105
SWIDTH 228 0
DWIDTH 7 0
BBX 3 19 2 0
BITMAP
E0
E0
E0
00
00
E0
E0
E0
E0
E0
E0
E0
E0
E0
E0
E0
E0
E0
E0
ENDCHAR

STARTCHAR j
ENCODING 106
SWIDTH 228 0
DWIDTH 7 0
BBX 4 24 1 -5
BITMAP
70
70
70
00
00
70
70
70
70
70
70
70
70
70
70
70
70
70
70
70
70
70
F0
E0
ENDCHAR

STARTCHAR k
ENCODING 107
SWIDTH 456 0
DWIDTH 11 0
BBX 10 19 1 0
BITMAP
E000
E000
E000
E000
E000
E3C0
E780
EF00
FE00
FC00
FC00
FE00
EE00
EF00
E700
E780
E380
E3C0
E1C0
ENDCHAR

STARTCHAR l
ENCODING 108
SWIDTH 228 0
DWIDTH 7 0
BBX 3 19 2 0
BITMAP
E0
E0
E0
E0
E0
E0
E0
E0
E0
E0
E0
E0
E0
E0
E0
E0
E0
E0
E0
ENDCHAR

STARTCHAR m
ENCODING 109
SWIDTH 729 0
DWIDTH 19 0
BBX 17 14 1 0
BITMAP
CF1E00
DFBF00
FFFF80
F3E780
E1C380
E1C380
E1C380
E1C380
E1C380
E1C380
E1C380
E1C380
E1C380
E1C380
ENDCHAR

STARTCHAR n
ENCODING 110
SWIDTH 501 0
DWIDTH 12 0
BBX 10 14 1 0
BITMAP
CF00
DF80
FFC0
F3C0
E1C0
E1C0
E1C0
E1C0
E1C0
E1C0
E1C0
E1C0
E1C0
E1C0
ENDCHAR

STARTCHAR o
ENCODING 111
SWIDTH 501 0
DWIDTH 12 0
BBX 10 14 1 0
BITMAP
1E00
7F80
7F80
F3C0
E1C0
E1C0
E1C0
E1C0
E1C0
E1C0
F3C0
7F80
7F80
1E00
ENDCHAR

STARTCHAR p
ENCODING 112
SWIDTH 501 0
DWIDTH 12 0
BBX 10 19 1 -5
BITMAP
DE00
FF00
FF80
E380
E1C0
E1C0
E1C0
E1C0
E1C0
E1C0
E380
FF80
FF00
EE00
E000
E000
E000
E000
E000
ENDCHAR

STARTCHAR q
ENCODING 113
SWIDTH 501 0
DWIDTH 12 0
BBX 10 19 1 -5
BITMAP
1EC0
3FC0
7FC0
71C0
E1C0
E1C0
E1C0
E1C0
E1C0
E1C0
71C0
7FC0
3FC0
1DC0
01C0
01C0
01C0
01C0
01C0
ENDCHAR

STARTCHAR r
ENCODING 114
SWIDTH 319 0
DWIDTH 7 0
BBX 6 14 1 0
BITMAP
DC
FC
FC
F0
E0
E0
E0
E0
E0
E0
E0
E0
E0
E0
ENDCHAR

STARTCHAR s
ENCODING 115
SWIDTH 456 0
DWIDTH 11 0
BBX 9 14 1 0
BITMAP
3E00
7F00
FF80
E380
E380
F800
7E00
3F00
0F80
E380
E380
FF80
7F00
3E00
ENDCHAR

STARTCHAR t
ENCODING 116
SWIDTH 273 0
DWIDTH 8 0
BBX 6 18 1 0
BITMAP
70
70
70
70
FC
FC
FC
70
70
70
70
70
70
70
70
7C
7C
3C
ENDCHAR

STARTCHAR u
ENCODING 117
SWIDTH 501 0
DWIDTH 12 0
BBX 10 14 1 0
BITMAP
E1C0
E1C0
E1C0
E1C0
E1C0
E1C0
E1C0
E1C0
E1C0
E1C0
F3C0
FFC0
7EC0
3CC0
ENDCHAR

STARTCHAR v
ENCODING 118
SWIDTH 456 0
DWIDTH 11 0
BBX 11 14 0 0
BITMAP
E0E0
E0E0
71C0
71C0
71C0
3B80
3B80
3B80
1F00
1F00
1F00
0E00
0E00
0E00
ENDCHAR

STARTCHAR w
ENCODING 119
SWIDTH 638 0
DWIDTH 15 0
BBX 15 14 0 0
BITMAP
E38E
E38E
E38E
739C
77DC
77DC
77DC
36D8
3EF8
3EF8
3C78
1C70
1C70
1C70
ENDCHAR

STARTCHAR x
ENCODING 120
SWIDTH 456 0
DWIDTH 11 0
BBX 9 14 1 0
BITMAP
E380
E380
7700
7700
3E00
3E00
1C00
1C00
3E00
3E00
7700
7700
E380
E380
ENDCHAR

STARTCHAR y
ENCODING 121
SWIDTH 456 0
DWIDTH 11 0
BBX 9 19 1 -5
BITMAP
E380
E380
E380
E380
7700
7700
7700
7700
3E00
3E00
3E00
3E00
1C00
1C00
1C00
3C00
F800
F800
F000
ENDCHAR

STARTCHAR z
ENCODING 122
SWIDTH 410 0
DWIDTH 11 0
BBX 9 14 1 0
BITMAP
FF80
FF80
FF80
0700
0F00
0E00
1C00
3C00
3800
7000
F000
FF80
FF80
FF80
ENDCHAR

STARTCHAR braceleft
ENCODING 123
SWIDTH 319 0
DWIDTH 7 0
BBX 6 24 0 -5
BITMAP
0C
1C
18
38
38
38
38
38
38
30
70
E0
E0
70
30
38
38
38
38
38
38
18
1C
0C
ENDCHAR

STARTCHAR bar
ENCODING 124
SWIDTH 230 0
DWIDTH 6 0
BBX 2 23 2 -4
BITMAP
C0
C0
C0
C0
C0
C0
C0
C0
C0
C0
C0
C0
C0
C0
C0
C0
C0
C0
C0
C0
C0
C0
C0
ENDCHAR

STARTCHAR braceright
ENCODING 125
SWIDTH 319 0
DWIDTH 7 0
BBX 6 24 1 -5
BITMAP
C0
E0
60
70
70
70
70
70
70
30
38
1C
1C
38
30
70
70
70
70
70
70
60
E0
C0
ENDCHAR

STARTCHAR asciitilde
ENCODING 126
SWIDTH 479 0
DWIDTH 12 0
BBX 11 5 0 4
BITMAP
3860
7C60
FFE0
C7C0
C380
ENDCHAR

STARTCHAR exclamdown
ENCODING 161
SWIDTH 273 0
DWIDTH 7 0
BBX 3 19 2 -5
BITMAP
E0
E0
E0
00
00
E0
E0
E0
E0
E0
E0
E0
E0
E0
E0
E0
E0
E0
E0
ENDCHAR

STARTCHAR cent
ENCODING 162
SWIDTH 456 0
DWIDTH 12 0
BBX 10 18 1 -2
BITMAP
0180
0180
1F00
7F80
7FC0
F3C0
E7C0
E600
E400
EC00
EC00
F9C0
F9C0
7FC0
7F80
1F00
3000
3000
ENDCHAR

STARTCHAR sterling
ENCODING 163
SWIDTH 456 0
DWIDTH 12 0
BBX 12 19 0 0
BITMAP
0F80
3FC0
3FE0
78E0
70E0
7000
7000
3800
3800
7F00
7F00
1C00
1C00
1C00
3800
3E70
7FF0
FFE0
63C0
ENDCHAR

STARTCHAR currency
ENCODING 164
SWIDTH 456 0
DWIDTH 12 0
BBX 10 10 1 4
BITMAP
DEC0
FFC0
7F80
F3C0
E1C0
E1C0
F3C0
7F80
FFC0
DEC0
ENDCHAR

STARTCHAR yen
ENCODING 165
SWIDTH 456 0
DWIDTH 12 0
BBX 13 19 0 0
BITMAP
E038
F078
7070
78F0
38E0
3DE0
1DC0
1FC0
0F80
3FE0
3FE0
0700
3FE0
3FE0
0700
0700
0700
0700
0700
ENDCHAR

STARTCHAR brokenbar
ENCODING 166
SWIDTH 230 0
DWIDTH 5 0
BBX 2 23 1 -4
BITMAP
C0
C0
C0
C0
C0
C0
C0
C0
C0
00
00
00
00
C0
C0
C0
C0
C0
C0
C0
C0
C0
C0
ENDCHAR

STARTCHAR section
ENCODING 167
SWIDTH 456 0
DWIDTH 12 0
BBX 10 24 1 -5
BITMAP
1E00
3F00
7F80
7380
7380
7800
3C00
3E00
7F00
E780
E380
E1C0
71C0
79C0
3FC0
1F80
0F00
0700
0380
7380
7380
7F80
3F00
1E00
ENDCHAR

STARTCHAR dieresis
ENCODING 168
SWIDTH 273 0
DWIDTH 7 0
BBX 7 3 0 15
BITMAP
EE
EE
EE
ENDCHAR

STARTCHAR copyright
ENCODING 169
SWIDTH 604 0
DWIDTH 19 0
BBX 17 18 1 1
BITMAP
07F000
1FFC00
3C1E00
700700
63E300
E7F380
CE3180
CC0180
CC0180
CC0180
CC0180
CE3180
E7F380
63E300
700700
3C1E00
1FFC00
07F000
ENDCHAR

STARTCHAR ordfeminine
ENCODING 170
SWIDTH 303 0
DWIDTH 8 0
BBX 7 11 0 8
BITMAP
78
FC
CC
3C
7C
CC
FC
76
00
FE
FE
ENDCHAR

STARTCHAR guillemotleft
ENCODING 171
SWIDTH 456 0
DWIDTH 11 0
BBX 9 8 1 3
BITMAP
1980
3B80
7700
EE00
EE00
7700
3B80
1980
ENDCHAR

STARTCHAR logicalnot
ENCODING 172
SWIDTH 479 0
DWIDTH 16 0
BBX 11 7 2 4
BITMAP
FFE0
FFE0
FFE0
0060
0060
0060
0060
ENDCHAR

STARTCHAR hyphen
ENCODING 173
SWIDTH 273 0
DWIDTH 7 0
BBX 5 3 1 6
BITMAP
F8
F8
F8
ENDCHAR

STARTCHAR registered
ENCODING 174
SWIDTH 604 0
DWIDTH 19 0
BBX 17 18 1 1
BITMAP
07F000
1FFC00
3C1E00
700700
67E300
E7F380
C63180
C63180
C7E180
C7C180
C66180
C66180
E63380
663300
700700
3C1E00
1FFC00
07F000
ENDCHAR

STARTCHAR macron
ENCODING 175
SWIDTH 273 0
DWIDTH 7 0
BBX 7 2 0 16
BITMAP
FE
FE
ENDCHAR

STARTCHAR degree
ENCODING 176
SWIDTH 328 0
DWIDTH 9 0
BBX 7 7 1 12
BITMAP
38
6C
C6
C6
C6
6C
38
ENDCHAR

STARTCHAR plusminus
ENCODING 177
SWIDTH 479 0
DWIDTH 12 0
BBX 11 17 0 0
BITMAP
0E00
0E00
0E00
0E00
0E00
FFE0
FFE0
FFE0
0E00
0E00
0E00
0E00
0E00
0000
FFE0
FFE0
FFE0
ENDCHAR

STARTCHAR twosuperior
ENCODING 178
SWIDTH 273 0
DWIDTH 7 0
BBX 6 11 0 8
BITMAP
78
FC
CC
CC
0C
18
30
60
C0
FC
FC
ENDCHAR

STARTCHAR threesuperior
ENCODING 179
SWIDTH 273 0
DWIDTH 7 0
BBX 6 11 0 8
BITMAP
78
FC
CC
0C
38
38
0C
CC
CC
FC
78
ENDCHAR

STARTCHAR acute
ENCODING 180
SWIDTH 273 0
DWIDTH 7 0
BBX 5 4 1 15
BITMAP
78
70
E0
C0
ENDCHAR

STARTCHAR mu
ENCODING 181
SWIDTH 501 0
DWIDTH 12 0
BBX 10 19 1 -5
BITMAP
E1C0
E1C0
E1C0
E1C0
E1C0
E1C0
E1C0
E1C0
E1C0
E1C0
F3C0
FFC0
FEC0
FCC0
E000
E000
E000
E000
E000
ENDCHAR

STARTCHAR paragraph
ENCODING 182
SWIDTH 456 0
DWIDTH 12 0
BBX 11 24 0 -5
BITMAP
1FE0
7FE0
7CC0
FCC0
FCC0
FCC0
FCC0
FCC0
7CC0
7CC0
3CC0
0CC0
0CC0
0CC0
0CC0
0CC0
0CC0
0CC0
0CC0
0CC0
0CC0
0CC0
0CC0
0CC0
ENDCHAR

STARTCHAR periodcentered
ENCODING 183
SWIDTH 228 0
DWIDTH 6 0
BBX 4 4 1 8
BITMAP
60
F0
F0
60
ENDCHAR

STARTCHAR cedilla
ENCODING 184
SWIDTH 273 0
DWIDTH 7 0
BBX 6 5 0 -5
BITMAP
10
38
1C
DC
78
ENDCHAR

STARTCHAR onesuperior
ENCODING 185
SWIDTH 273 0
DWIDTH 7 0
BBX 4 11 0 8
BITMAP
30
F0
F0
30
30
30
30
30
30
30
30
ENDCHAR

STARTCHAR ordmasculine
ENCODING 186
SWIDTH 299 0
DWIDTH 7 0
BBX 6 11 0 8
BITMAP
78
FC
CC
CC
CC
CC
FC
78
00
FC
FC
ENDCHAR

STARTCHAR guillemotright
ENCODING 187
SWIDTH 456 0
DWIDTH 11 0
BBX 9 8 1 3
BITMAP
CC00
EE00
7700
3B80
3B80
7700
EE00
CC00
ENDCHAR

STARTCHAR onequarter
ENCODING 188
SWIDTH 684 0
DWIDTH 18 0
BBX 16 19 1 0
BITMAP
300C
F018
F018
3030
3030
3060
3060
30C0
30C6
318E
318E
031E
0316
0636
0666
0C7F
0C7F
1806
1806
ENDCHAR

STARTCHAR onehalf
ENCODING 189
SWIDTH 684 0
DWIDTH 18 0
BBX 16 19 1 0
BITMAP
300C
F018
F018
3030
3030
3060
3060
30C0
30DE
31BF
31B3
0333
0303
0606
060C
0C18
0C30
183F
183F
ENDCHAR

STARTCHAR threequarters
ENCODING 190
SWIDTH 684 0
DWIDTH 18 0
BBX 16 19 1 0
BITMAP
780C
FC18
CC18
0C30
3830
3860
0C60
CCC0
CCC6
FD8E
798E
031E
0316
0636
0666
0C7F
0C7F
1806
1806
ENDCHAR

STARTCHAR questiondown
ENCODING 191
SWIDTH 501 0
DWIDTH 11 0
BBX 9 19 1 -5
BITMAP
1C00
1C00
1C00
0000
0000
1C00
1C00
1C00
3C00
3800
7800
7000
F000
E380
E380
E380
FF80
7F00
3E00
ENDCHAR

STARTCHAR Agrave
ENCODING 192
SWIDTH 592 0
DWIDTH 15 0
BBX 13 19 1 0
BITMAP
1E00
0E00
0700
0300
0000
0700
0700
0F80
0F80
1DC0
1DC0
18C0
38E0
3FE0
7FF0
7FF0
7070
E038
E038
ENDCHAR

STARTCHAR Aacute
ENCODING 193
SWIDTH 592 0
DWIDTH 15 0
BBX 13 19 1 0
BITMAP
03C0
0380
0700
0600
0000
0700
0700
0F80
0F80
1DC0
1DC0
18C0
38E0
3FE0
7FF0
7FF0
7070
E038
E038
ENDCHAR

STARTCHAR Acircumflex
ENCODING 194
SWIDTH 592 0
DWIDTH 15 0
BBX 13 19 1 0
BITMAP
0700
0F80
1DC0
18C0
0000
0700
0700
0F80
0F80
1DC0
1DC0
18C0
38E0
3FE0
7FF0
7FF0
7070
E038
E038
ENDCHAR

STARTCHAR Atilde
ENCODING 195
SWIDTH 592 0
DWIDTH 15 0
BBX 13 18 1 0
BITMAP
0EC0
1FC0
1B80
0000
0700
0700
0F80
0F80
1DC0
1DC0
18C0
38E0
3FE0
7FF0
7FF0
7070
E038
E038
ENDCHAR

STARTCHAR Adieresis
ENCODING 196
SWIDTH 592 0
DWIDTH 15 0
BBX 13 18 1 0
BITMAP
1DC0
1DC0
1DC0
0000
0700
0700
0F80
0F80
1DC0
1DC0
18C0
38E0
3FE0
7FF0
7FF0
7070
E038
E038
ENDCHAR

STARTCHAR Aring
ENCODING 197
SWIDTH 592 0
DWIDTH 15 0
BBX 13 19 1 0
BITMAP
0700
0D80
0880
0D80
0700
0700
0700
0F80
0F80
1DC0
1DC0
18C0
38E0
3FE0
7FF0
7FF0
7070
E038
E038
ENDCHAR

STARTCHAR AE
ENCODING 198
SWIDTH 820 0
DWIDTH 20 0
BBX 18 19 1 0
BITMAP
07FFC0
07FFC0
07FFC0
0EE000
0EE000
0EE000
1CE000
1CE000
1CFF80
1CFF80
38FF80
38E000
3FE000
7FE000
7FE000
70E000
E0FFC0
E0FFC0
E0FFC0
ENDCHAR

STARTCHAR Ccedilla
ENCODING 199
SWIDTH 592 0
DWIDTH 14 0
BBX 12 24 1 -5
BITMAP
0F80
3FE0
3FE0
78F0
7070
F070
E000
E000
E000
E000
E000
E000
E000
F070
7070
78F0
3FE0
3FE0
0F80
0200
0700
0380
1B80
0F00
ENDCHAR

STARTCHAR Egrave
ENCODING 200
SWIDTH 547 0
DWIDTH 13 0
BBX 10 19 2 0
BITMAP
3C00
1C00
0E00
0600
0000
FFC0
FFC0
FFC0
E000
E000
FF80
FF80
FF80
E000
E000
E000
FFC0
FFC0
FFC0
ENDCHAR

STARTCHAR Eacute
ENCODING 201
SWIDTH 547 0
DWIDTH 13 0
BBX 10 19 2 0
BITMAP
0F00
0E00
1C00
1800
0000
FFC0
FFC0
FFC0
E000
E000
FF80
FF80
FF80
E000
E000
E000
FFC0
FFC0
FFC0
ENDCHAR

STARTCHAR Ecircumflex
ENCODING 202
SWIDTH 547 0
DWIDTH 13 0
BBX 10 19 2 0
BITMAP
0E00
1F00
3B80
3180
0000
FFC0
FFC0
FFC0
E000
E000
FF80
FF80
FF80
E000
E000
E000
FFC0
FFC0
FFC0
ENDCHAR

STARTCHAR Edieresis
ENCODING 203
SWIDTH 547 0
DWIDTH 13 0
BBX 10 18 2 0
BITMAP
3B80
3B80
3B80
0000
FFC0
FFC0
FFC0
E000
E000
FF80
FF80
FF80
E000
E000
E000
FFC0
FFC0
FFC0
ENDCHAR

STARTCHAR Igrave
ENCODING 204
SWIDTH 228 0
DWIDTH 7 0
BBX 5 19 0 0
BITMAP
F0
70
38
18
00
38
38
38
38
38
38
38
38
38
38
38
38
38
38
ENDCHAR

STARTCHAR Iacute
ENCODING 205
SWIDTH 228 0
DWIDTH 7 0
BBX 5 19 2 0
BITMAP
78
70
E0
C0
00
E0
E0
E0
E0
E0
E0
E0
E0
E0
E0
E0
E0
E0
E0
ENDCHAR

STARTCHAR Icircumflex
ENCODING 206
SWIDTH 228 0
DWIDTH 7 0
BBX 7 19 0 0
BITMAP
38
7C
EE
C6
00
38
38
38
38
38
38
38
38
38
38
38
38
38
38
ENDCHAR

STARTCHAR Idieresis
ENCODING 207
SWIDTH 228 0
DWIDTH 7 0
BBX 7 18 0 0
BITMAP
EE
EE
EE
00
38
38
38
38
38
38
38
38
38
38
38
38
38
38
ENDCHAR

STARTCHAR Eth
ENCODING 208
SWIDTH 592 0
DWIDTH 16 0
BBX 14 19 0 0
BITMAP
3FC0
3FF0
3FF0
3878
3838
383C
381C
381C
FF1C
FF1C
381C
381C
381C
383C
3838
3878
3FF0
3FF0
3FC0
ENDCHAR

STARTCHAR Ntilde
ENCODING 209
SWIDTH 592 0
DWIDTH 16 0
BBX 12 18 2 0
BITMAP
0EC0
1FC0
1B80
0000
F870
F870
FC70
FC70
EE70
EE70
E770
E770
E3F0
E3F0
E1F0
E1F0
E0F0
E0F0
ENDCHAR

STARTCHAR Ograve
ENCODING 210
SWIDTH 638 0
DWIDTH 16 0
BBX 12 19 2 0
BITMAP
1E00
0E00
0700
0300
0000
1F80
7FE0
7FE0
F0F0
E070
E070
E070
E070
E070
E070
F0F0
7FE0
7FE0
1F80
ENDCHAR

STARTCHAR Oacute
ENCODING 211
SWIDTH 638 0
DWIDTH 16 0
BBX 12 19 2 0
BITMAP
0780
0700
0E00
0C00
0000
1F80
7FE0
7FE0
F0F0
E070
E070
E070
E070
E070
E070
F0F0
7FE0
7FE0
1F80
ENDCHAR

STARTCHAR Ocircumflex
ENCODING 212
SWIDTH 638 0
DWIDTH 16 0
BBX 12 19 2 0
BITMAP
0E00
1F00
3B80
3180
0000
1F80
7FE0
7FE0
F0F0
E070
E070
E070
E070
E070
E070
F0F0
7FE0
7FE0
1F80
ENDCHAR

STARTCHAR Otilde
ENCODING 213
SWIDTH 638 0
DWIDTH 16 0
BBX 12 18 2 0
BITMAP
0EC0
1FC0
1B80
0000
1F80
7FE0
7FE0
F0F0
E070
E070
E070
E070
E070
E070
F0F0
7FE0
7FE0
1F80
ENDCHAR

STARTCHAR Odieresis
ENCODING 214
SWIDTH 638 0
DWIDTH 16 0
BBX 12 18 2 0
BITMAP
3B80
3B80
3B80
0000
1F80
7FE0
7FE0
F0F0
E070
E070
E070
E070
E070
E070
F0F0
7FE0
7FE0
1F80
ENDCHAR

STARTCHAR multiply
ENCODING 215
SWIDTH 479 0
DWIDTH 12 0
BBX 11 13 0 0
BITMAP
4040
E0E0
F1E0
7BC0
3F80
1F00
0E00
1F00
3F80
7BC0
F1E0
E0E0
4040
ENDCHAR

STARTCHAR Oslash
ENCODING 216
SWIDTH 638 0
DWIDTH 16 0
BBX 14 19 1 0
BITMAP
0FD8
3FF8
3FF0
78F8
70F8
F1DC
E19C
E19C
E39C
E31C
E71C
E61C
E61C
EE3C
7C38
7C78
3FF0
7FF0
6FC0
ENDCHAR

STARTCHAR Ugrave
ENCODING 217
SWIDTH 592 0
DWIDTH 16 0
BBX 12 19 2 0
BITMAP
1E00
0E00
0700
0300
0000
E070
E070
E070
E070
E070
E070
E070
E070
E070
E070
F0F0
7FE0
7FE0
1F80
ENDCHAR

STARTCHAR Uacute
ENCODING 218
SWIDTH 592 0
DWIDTH 16 0
BBX 12 19 2 0
BITMAP
0780
0700
0E00
0C00
0000
E070
E070
E070
E070
E070
E070
E070
E070
E070
E070
F0F0
7FE0
7FE0
1F80
ENDCHAR

STARTCHAR Ucircumflex
ENCODING 219
SWIDTH 592 0
DWIDTH 16 0
BBX 12 19 2 0
BITMAP
0E00
1F00
3B80
3180
0000
E070
E070
E070
E070
E070
E070
E070
E070
E070
E070
F0F0
7FE0
7FE0
1F80
ENDCHAR

STARTCHAR Udieresis
ENCODING 220
SWIDTH 592 0
DWIDTH 16 0
BBX 12 18 2 0
BITMAP
3B80
3B80
3B80
0000
E070
E070
E070
E070
E070
E070
E070
E070
E070
E070
F0F0
7FE0
7FE0
1F80
ENDCHAR

STARTCHAR Yacute
ENCODING 221
SWIDTH 547 0
DWIDTH 13 0
BBX 13 19 0 0
BITMAP
03C0
0380
0700
0600
0000
E038
F078
78F0
38E0
3DE0
1FC0
0F80
0F80
0700
0700
0700
0700
0700
0700
ENDCHAR

STARTCHAR Thorn
ENCODING 222
SWIDTH 547 0
DWIDTH 14 0
BBX 11 19 2 0
BITMAP
E000
E000
E000
E000
FF00
FFC0
FFC0
E1E0
E0E0
E0E0
E0E0
E1E0
FFC0
FFC0
FF00
E000
E000
E000
E000
ENDCHAR

STARTCHAR germandbls
ENCODING 223
SWIDTH 501 0
DWIDTH 12 0
BBX 10 19 1 0
BITMAP
3C00
7F00
FF00
E780
E380
E380
E780
EF00
EE00
EF80
E380
E1C0
E1C0
E1C0
E1C0
E3C0
EF80
EF80
EE00
ENDCHAR

STARTCHAR agrave
ENCODING 224
SWIDTH 456 0
DWIDTH 12 0
BBX 10 19 1 0
BITMAP
7800
3800
1C00
0C00
0000
3E00
7F00
FF80
E380
0380
0F80
3F80
7B80
F380
E380
E780
FF80
FFC0
79C0
ENDCHAR

STARTCHAR aacute
ENCODING 225
SWIDTH 456 0
DWIDTH 12 0
BBX 10 19 1 0
BITMAP
0F00
0E00
1C00
1800
0000
3E00
7F00
FF80
E380
0380
0F80
3F80
7B80
F380
E380
E780
FF80
FFC0
79C0
ENDCHAR

STARTCHAR acircumflex
ENCODING 226
SWIDTH 456 0
DWIDTH 12 0
BBX 10 19 1 0
BITMAP
1C00
3E00
7700
6300
0000
3E00
7F00
FF80
E380
0380
0F80
3F80
7B80
F380
E380
E780
FF80
FFC0
79C0
ENDCHAR

STARTCHAR atilde
ENCODING 227
SWIDTH 456 0
DWIDTH 12 0
BBX 10 18 1 0
BITMAP
3B00
7F00
6E00
0000
3E00
7F00
FF80
E380
0380
0F80
3F80
7B80
F380
E380
E780
FF80
FFC0
79C0
ENDCHAR

STARTCHAR adieresis
ENCODING 228
SWIDTH 456 0
DWIDTH 12 0
BBX 10 18 1 0
BITMAP
7700
7700
7700
0000
3E00
7F00
FF80
E380
0380
0F80
3F80
7B80
F380
E380
E780
FF80
FFC0
79C0
ENDCHAR

STARTCHAR aring
ENCODING 229
SWIDTH 456 0
DWIDTH 12 0
BBX 10 19 1 0
BITMAP
1C00
3600
2200
3600
1C00
3E00
7F00
FF80
E380
0380
0F80
3F80
7B80
F380
E380
E780
FF80
FFC0
79C0
ENDCHAR

STARTCHAR ae
ENCODING 230
SWIDTH 729 0
DWIDTH 19 0
BBX 17 14 1 0
BITMAP
3E3C00
7F7F00
FFFF00
E3E780
03C380
0FC380
3FFF80
7BFF80
F3C000
E3C380
E7E780
FFFF00
FE7F00
7C3C00
ENDCHAR

STARTCHAR ccedilla
ENCODING 231
SWIDTH 456 0
DWIDTH 12 0
BBX 10 19 1 -5
BITMAP
1E00
7F80
7F80
F1C0
E1C0
E000
E000
E000
E000
E1C0
F1C0
7F80
7F80
1E00
0800
1C00
0E00
6E00
3C00
ENDCHAR

STARTCHAR egrave
ENCODING 232
SWIDTH 456 0
DWIDTH 12 0
BBX 10 19 1 0
BITMAP
3C00
1C00
0E00
0600
0000
1E00
7F80
7F80
F3C0
E1C0
E1C0
FFC0
FFC0
E000
E1C0
F3C0
7F80
7F80
1E00
ENDCHAR

STARTCHAR eacute
ENCODING 233
SWIDTH 456 0
DWIDTH 12 0
BBX 10 19 1 0
BITMAP
0F00
0E00
1C00
1800
0000
1E00
7F80
7F80
F3C0
E1C0
E1C0
FFC0
FFC0
E000
E1C0
F3C0
7F80
7F80
1E00
ENDCHAR

STARTCHAR ecircumflex
ENCODING 234
SWIDTH 456 0
DWIDTH 12 0
BBX 10 19 1 0
BITMAP
1C00
3E00
7700
6300
0000
1E00
7F80
7F80
F3C0
E1C0
E1C0
FFC0
FFC0
E000
E1C0
F3C0
7F80
7F80
1E00
ENDCHAR

STARTCHAR edieresis
ENCODING 235
SWIDTH 456 0
DWIDTH 12 0
BBX 10 18 1 0
BITMAP
7700
7700
7700
0000
1E00
7F80
7F80
F3C0
E1C0
E1C0
FFC0
FFC0
E000
E1C0
F3C0
7F80
7F80
1E00
ENDCHAR

STARTCHAR igrave
ENCODING 236
SWIDTH 228 0
DWIDTH 7 0
BBX 5 19 0 0
BITMAP
F0
70
38
18
00
38
38
38
38
38
38
38
38
38
38
38
38
38
38
ENDCHAR

STARTCHAR iacute
ENCODING 237
SWIDTH 228 0
DWIDTH 7 0
BBX 5 19 2 0
BITMAP
78
70
E0
C0
00
E0
E0
E0
E0
E0
E0
E0
E0
E0
E0
E0
E0
E0
E0
ENDCHAR

STARTCHAR icircumflex
ENCODING 238
SWIDTH 228 0
DWIDTH 7 0
BBX 7 19 0 0
BITMAP
38
7C
EE
C6
00
38
38
38
38
38
38
38
38
38
38
38
38
38
38
ENDCHAR

STARTCHAR idieresis
ENCODING 239
SWIDTH 228 0
DWIDTH 7 0
BBX 7 18 0 0
BITMAP
EE
EE
EE
00
38
38
38
38
38
38
38
38
38
38
38
38
38
38
ENDCHAR

STARTCHAR eth
ENCODING 240
SWIDTH 501 0
DWIDTH 12 0
BBX 10 19 1 0
BITMAP
6600
FC00
3800
7C00
CE00
1F00
7F80
7F80
F3C0
E1C0
E1C0
E1C0
E1C0
E1C0
E1C0
F3C0
7F80
7F80
1E00
ENDCHAR

STARTCHAR ntilde
ENCODING 241
SWIDTH 501 0
DWIDTH 12 0
BBX 10 18 1 0
BITMAP
1D80
3F80
3700
0000
CF00
DF80
FFC0
F3C0
E1C0
E1C0
E1C0
E1C0
E1C0
E1C0
E1C0
E1C0
E1C0
E1C0
ENDCHAR

STARTCHAR ograve
ENCODING 242
SWIDTH 501 0
DWIDTH 12 0
BBX 10 19 1 0
BITMAP
3C00
1C00
0E00
0600
0000
1E00
7F80
7F80
F3C0
E1C0
E1C0
E1C0
E1C0
E1C0
E1C0
F3C0
7F80
7F80
1E00
ENDCHAR

STARTCHAR oacute
ENCODING 243
SWIDTH 501 0
DWIDTH 12 0
BBX 10 19 1 0
BITMAP
0F00
0E00
1C00
1800
0000
1E00
7F80
7F80
F3C0
E1C0
E1C0
E1C0
E1C0
E1C0
E1C0
F3C0
7F80
7F80
1E00
ENDCHAR

STARTCHAR ocircumflex
ENCODING 244
SWIDTH 501 0
DWIDTH 12 0
BBX 10 19 1 0
BITMAP
1C00
3E00
7700
6300
0000
1E00
7F80
7F80
F3C0
E1C0
E1C0
E1C0
E1C0
E1C0
E1C0
F3C0
7F80
7F80
1E00
ENDCHAR

STARTCHAR otilde
ENCODING 245
SWIDTH 501 0
DWIDTH 12 0
BBX 10 18 1 0
BITMAP
1D80
3F80
3700
0000
1E00
7F80
7F80
F3C0
E1C0
E1C0
E1C0
E1C0
E1C0
E1C0
F3C0
7F80
7F80
1E00
ENDCHAR

STARTCHAR odieresis
ENCODING 246
SWIDTH 501 0
DWIDTH 12 0
BBX 10 18 1 0
BITMAP
7700
7700
7700
0000
1E00
7F80
7F80
F3C0
E1C0
E1C0
E1C0
E1C0
E1C0
E1C0
F3C0
7F80
7F80
1E00
ENDCHAR

STARTCHAR divide
ENCODING 247
SWIDTH 479 0
DWIDTH 12 0
BBX 11 13 0 0
BITMAP
0E00
0E00
0E00
0000
0000
FFE0
FFE0
FFE0
0000
0000
0E00
0E00
0E00
ENDCHAR

STARTCHAR oslash
ENCODING 248
SWIDTH 501 0
DWIDTH 12 0
BBX 10 14 1 0
BITMAP
1EC0
7FC0
7F80
F3C0
E7C0
E7C0
EDC0
EDC0
F9C0
F9C0
F3C0
7F80
FF80
DE00
ENDCHAR

STARTCHAR ugrave
ENCODING 249
SWIDTH 501 0
DWIDTH 12 0
BBX 10 19 1 0
BITMAP
3C00
1C00
0E00
0600
0000
E1C0
E1C0
E1C0
E1C0
E1C0
E1C0
E1C0
E1C0
E1C0
E1C0
F3C0
FFC0
7EC0
3CC0
ENDCHAR

STARTCHAR uacute
ENCODING 250
SWIDTH 501 0
DWIDTH 12 0
BBX 10 19 1 0
BITMAP
0F00
0E00
1C00
1800
0000
E1C0
E1C0
E1C0
E1C0
E1C0
E1C0
E1C0
E1C0
E1C0
E1C0
F3C0
FFC0
7EC0
3CC0
ENDCHAR

STARTCHAR ucircumflex
ENCODING 251
SWIDTH 501 0
DWIDTH 12 0
BBX 10 19 1 0
BITMAP
1C00
3E00
7700
6300
0000
E1C0
E1C0
E1C0
E1C0
E1C0
E1C0
E1C0
E1C0
E1C0
E1C0
F3C0
FFC0
7EC0
3CC0
ENDCHAR

STARTCHAR udieresis
ENCODING 252
SWIDTH 501 0
DWIDTH 12 0
BBX 10 18 1 0
BITMAP
7700
7700
7700
0000
E1C0
E1C0
E1C0
E1C0
E1C0
E1C0
E1C0
E1C0
E1C0
E1C0
F3C0
FFC0
7EC0
3CC0
ENDCHAR

STARTCHAR yacute
ENCODING 253
SWIDTH 456 0
DWIDTH 11 0
BBX 9 24 1 -5
BITMAP
0F00
0E00
1C00
1800
0000
E380
E380
E380
E380
7700
7700
7700
7700
3E00
3E00
3E00
3E00
1C00
1C00
1C00
3C00
F800
F800
F000
ENDCHAR

STARTCHAR thorn
ENCODING 254
SWIDTH 501 0
DWIDTH 12 0
BBX 10 24 1 -5
BITMAP
E000
E000
E000
E000
E000
EE00
FF00
FF80
E380
E1C0
E1C0
E1C0
E1C0
E1C0
E1C0
E380
FF80
FF00
EE00
E000
E000
E000
E000
E000
ENDCHAR

STARTCHAR ydieresis
ENCODING 255
SWIDTH 456 0
DWIDTH 11 0
BBX 9 23 1 -5
BITMAP
7700
7700
7700
0000
E380
E380
E380
E380
7700
7700
7700
7700
3E00
3E00
3E00
3E00
1C00
1C00
1C00
3C00
F800
F800
F000
ENDCHAR
ENDFONT
